<?xml version="1.0" encoding="UTF-8"?>
<svg version="1.1" xmlns="http://www.w3.org/2000/svg" width="360" height="360">
<path d="M0 0 C0.78552246 0.19867676 1.57104492 0.39735352 2.38037109 0.60205078 C42.09615485 10.93140424 76.41769859 35.09170445 97.75 70.48046875 C106.09871034 84.81025333 111.95544263 99.93227756 116 116 C116.24991699 116.96921387 116.24991699 116.96921387 116.50488281 117.95800781 C125.65026983 155.27800327 117.11702288 195.22106978 98.2890625 227.9765625 C82.53133821 253.64759691 60.60167309 274.00801993 34 288 C32.85273438 288.60714844 31.70546875 289.21429688 30.5234375 289.83984375 C-3.30464095 307.01223695 -43.15865269 307.77561321 -79 297 C-101.79143214 289.49744405 -121.61968102 277.5009576 -139 261 C-139.50144531 260.53110352 -140.00289062 260.06220703 -140.51953125 259.57910156 C-150.00652589 250.66340405 -159.24461643 240.81081083 -165 229 C-165.66 228.34 -166.32 227.68 -167 227 C-180.58112329 203.38876493 -187.22870379 176.67587698 -187.25 149.625 C-187.25101212 148.47633957 -187.25101212 148.47633957 -187.25204468 147.30447388 C-187.23651796 136.23653708 -186.85519977 125.75305074 -184 115 C-183.83371094 114.3287207 -183.66742188 113.65744141 -183.49609375 112.96582031 C-173.6673595 73.5598765 -147.90061061 40.73978627 -114 19 C-113.41879395 18.62601074 -112.83758789 18.25202148 -112.23876953 17.86669922 C-80.28579038 -2.34997401 -36.77889758 -9.50427514 0 0 Z M-110 59 C-111.2684375 60.02480469 -111.2684375 60.02480469 -112.5625 61.0703125 C-133.37142663 78.69287224 -147.7420903 106.01782481 -151 133 C-151.12830671 135.69444094 -151.10184695 138.30105595 -151 141 C-148.69009376 138.69009376 -147.78373426 136.32054903 -146.53979492 133.33886719 C-139.51466516 116.52629083 -129.84187686 99.5676304 -116.68359375 86.7421875 C-114.76836301 85.16409264 -114.76836301 85.16409264 -115 83 C-114.34 83 -113.68 83 -113 83 C-110.64358176 80.78639499 -108.43763148 78.48406191 -106.26953125 76.0859375 C-90.15663516 58.94455868 -68.61712359 48.49273002 -46 43 C-44.53820312 42.63261719 -44.53820312 42.63261719 -43.046875 42.2578125 C-21.31147766 37.72442963 0.34925763 41.90218455 20.84375 49.23828125 C24.54449706 50.54561037 28.27275505 51.77066307 32 53 C17.50009596 37.10318805 -8.24041849 31.9532337 -28.77734375 30.78515625 C-58.50578668 30.04268765 -87.15982438 39.8985436 -110 59 Z M-152 141 C-151 144 -151 144 -151 144 Z " fill="#FE8F00" transform="translate(214,30)"/>
<path d="M0 0 C1.32 0.33 2.64 0.66 4 1 C5.24646737 6.8745271 5.21506547 12.71900324 5.29711914 18.69677734 C5.31677231 19.86808197 5.33642548 21.0393866 5.35667419 22.2461853 C5.42043487 26.10938029 5.47782481 29.97264219 5.53515625 33.8359375 C5.57817501 36.51779896 5.62154732 39.19965237 5.66539001 41.88150024 C5.76813247 48.21362194 5.86628908 54.54580601 5.96278423 60.87802565 C6.07290546 68.08969325 6.1881602 75.30127598 6.30383885 82.51285625 C6.54159079 97.34181636 6.77291983 112.17087253 7 127 C7.52956299 126.58637207 8.05912598 126.17274414 8.60473633 125.74658203 C11.00647496 123.87163053 13.40947203 121.99829869 15.8125 120.125 C16.64587891 119.47402344 17.47925781 118.82304687 18.33789062 118.15234375 C19.54155273 117.21455078 19.54155273 117.21455078 20.76953125 116.2578125 C21.87711792 115.39373779 21.87711792 115.39373779 23.00708008 114.51220703 C24.62808056 113.28220863 26.30691798 112.12872135 28 111 C28.535728 108.26326899 28.82309352 105.77046265 29 103 C29.0712207 102.02289063 29.14244141 101.04578125 29.21582031 100.0390625 C29.42145066 96.69225132 29.52999813 93.35166611 29.625 90 C29.69589844 88.86304688 29.76679688 87.72609375 29.83984375 86.5546875 C30.02583332 80.10232385 30.02583332 80.10232385 27.07739258 74.57543945 C24.7425168 72.47542994 24.7425168 72.47542994 22.29467773 70.76293945 C17.4129976 67.01247534 14.55204718 61.91055219 13.69091797 55.81054688 C12.76177239 44.4186166 13.59672822 34.37202121 20.8125 25.125 C24.56666591 21.12496932 28.42805096 18.55911936 33.875 17.375 C40.65527443 18.73105489 45.5621126 22.90011258 49.4375 28.5 C54.74066613 36.84002194 54.74723548 45.47274758 54 55 C52.22223401 62.71712057 47.79763466 70.22480544 41.359375 74.9296875 C37.62953028 79.78342583 38.21753389 84.8557777 38.1875 90.8125 C38.16236328 91.98232422 38.13722656 93.15214844 38.11132812 94.35742188 C38.05252818 97.2386193 38.01619468 100.11829983 38 103 C38.9178125 102.34773438 39.835625 101.69546875 40.78125 101.0234375 C41.37276855 100.60344482 41.96428711 100.18345215 42.57373047 99.75073242 C43.86340438 98.82965353 45.14887662 97.90266444 46.43017578 96.9699707 C49.14374665 94.99875283 51.79280775 93.11792643 54.7109375 91.45703125 C57.00032253 90.11398046 58.47649198 89.1824486 60 87 C60.37321706 83.61934777 60.24676197 80.4439377 60.05078125 77.05078125 C59.97943657 72.76461223 61.05916197 71.08429354 64 68 C71.55276643 60.28144114 80.69135045 54.22180356 89.39794922 47.89501953 C93.75822092 44.71952423 98.09688737 41.51478423 102.4375 38.3125 C103.23591309 37.72452637 104.03432617 37.13655273 104.85693359 36.53076172 C105.60410645 35.98049316 106.3512793 35.43022461 107.12109375 34.86328125 C108.10227173 34.14072144 108.10227173 34.14072144 109.10327148 33.40356445 C110.44615883 32.40983819 111.7612483 31.37803201 113.05493164 30.32104492 C115 29 115 29 118 29 C116.76145489 32.71563534 115.30982822 33.59458591 112.25 36 C110.76886719 37.18335937 110.76886719 37.18335937 109.2578125 38.390625 C108.72961914 38.81150391 108.20142578 39.23238281 107.65722656 39.66601562 C104.77704924 41.9844141 101.95015963 44.36510389 99.125 46.75 C98.59036133 47.19730469 98.05572266 47.64460938 97.50488281 48.10546875 C94.17006591 50.92032985 90.95928913 53.78955349 88 57 C88 57.66 88 58.32 88 59 C90.97981816 57.60428298 93.54970176 55.97633566 96.1953125 54.0234375 C96.98945557 53.43836426 97.78359863 52.85329102 98.60180664 52.25048828 C99.43446045 51.63157715 100.26711426 51.01266602 101.125 50.375 C101.97505615 49.74706543 102.8251123 49.11913086 103.70092773 48.47216797 C109.01204851 44.531872 114.22088019 40.5121604 119.28515625 36.2578125 C121 35 121 35 123 35 C122.15636407 39.75584682 119.14748814 41.81585376 115.5625 44.75 C114.93158447 45.27932129 114.30066895 45.80864258 113.65063477 46.35400391 C109.96657164 49.4308347 106.21774136 52.41704679 102.4375 55.375 C98.73816029 58.30034277 95.74402962 61.15835853 93 65 C93 65.66 93 66.32 93 67 C98.71983275 63.33588085 104.05480078 59.20042645 109.4375 55.0625 C112.1413638 52.98655672 114.84700229 50.91340013 117.56201172 48.85205078 C119.08685581 47.69368234 120.60525797 46.52672714 122.11376953 45.34716797 C123.97265625 43.93359375 123.97265625 43.93359375 127 42 C127.99 42.33 128.98 42.66 130 43 C125.99063843 47.06302415 121.86366987 50.98409337 117.6875 54.875 C117.02395508 55.49342773 116.36041016 56.11185547 115.67675781 56.74902344 C103.75369746 67.83086836 103.75369746 67.83086836 99 71 C99 71.66 99 72.32 99 73 C103.8639029 72.54712264 106.80203696 70.13693289 110.4375 67.125 C111.67049959 66.13141941 112.90357487 65.13793275 114.13671875 64.14453125 C114.76884277 63.62971191 115.4009668 63.11489258 116.05224609 62.58447266 C119.2660702 59.97006824 122.5051311 57.38819691 125.75 54.8125 C126.34611084 54.33119629 126.94222168 53.84989258 127.55639648 53.35400391 C131.77375266 50 131.77375266 50 134 50 C132.67193785 52.97826201 131.26488767 54.9445046 128.8671875 57.14453125 C128.23377441 57.73161865 127.60036133 58.31870605 126.94775391 58.92358398 C126.26374512 59.54692627 125.57973633 60.17026855 124.875 60.8125 C123.42160105 62.15334895 121.96848419 63.49450372 120.515625 64.8359375 C119.76861328 65.52268555 119.02160156 66.20943359 118.25195312 66.91699219 C116.06337011 68.94138402 113.8953382 70.98524622 111.734375 73.0390625 C90.01003359 93.68025959 90.01003359 93.68025959 80 97 C76.375 96.8125 76.375 96.8125 73 96 C67.87772023 95.33819529 67.87772023 95.33819529 63.21777344 97.0769043 C61.4382678 98.61801843 59.80966336 100.23157726 58.1875 101.9375 C53.87821761 106.31058459 49.85812974 109.78082122 44.625 113.0625 C41.29706523 115.78535572 39.76336653 117.7198737 39.2890625 121.9453125 C39.13212828 126.29025466 39.43510618 130.5931996 39.77539062 134.92382812 C40.18891312 140.58728845 40.31994202 146.26267268 40.5 151.9375 C40.54382813 153.17435547 40.58765625 154.41121094 40.6328125 155.68554688 C40.97391657 165.68290579 41.17134887 175.67882628 41.23217773 185.68191528 C41.24401616 187.34624722 41.26106786 189.0105506 41.28344727 190.67477417 C41.31321151 193.00602351 41.32333822 195.33655156 41.328125 197.66796875 C41.34043152 198.3665802 41.35273804 199.06519165 41.36541748 199.78497314 C41.35221152 202.66108858 41.32061777 204.54822561 39.62792969 206.93334961 C37.36251185 208.41769432 35.68964733 208.39901471 33 208.375 C32.13375 208.38273438 31.2675 208.39046875 30.375 208.3984375 C27.49426179 207.91515576 26.77807764 207.27558559 25 205 C24.62768555 202.92333984 24.62768555 202.92333984 24.63671875 200.4609375 C24.63599365 199.50759521 24.63526855 198.55425293 24.63452148 197.57202148 C24.65200439 196.51700439 24.6694873 195.4619873 24.6875 194.375 C24.696604 193.26648682 24.70570801 192.15797363 24.71508789 191.01586914 C24.87039838 179.81475624 25.3967139 168.62550132 25.9375 157.4375 C25.98079437 156.54109802 26.02408875 155.64469604 26.06869507 154.72113037 C26.1964644 152.1250452 26.32939395 149.52928865 26.46484375 146.93359375 C26.5034552 146.1656398 26.54206665 145.39768585 26.58184814 144.60646057 C26.86527649 139.37579251 27.38424024 134.20221945 28 129 C26.35203279 130.33069502 24.70676816 131.66473697 23.0625 133 C21.68771484 134.11375 21.68771484 134.11375 20.28515625 135.25 C19.78178238 135.68166473 19.27840851 136.11332947 18.75978088 136.55807495 C17 138 17 138 14.74009705 139.53982544 C11.04180138 142.29262138 8.41620842 144.41906998 7.21522522 148.980896 C6.97635137 152.55894237 7.01329981 156.03399748 7.15625 159.6171875 C7.17932524 161.59305859 7.20239919 163.5689297 7.2253952 165.54480171 C7.26919068 168.29180328 7.35544897 171.03690747 7.44030762 173.78289795 C7.55910362 177.94646714 7.61509523 182.11127 7.6802597 186.27595711 C7.7320385 189.51234489 7.79635588 192.74743826 7.88244629 195.98312378 C7.91157104 197.13837555 7.9406958 198.29362732 7.97070312 199.48388672 C8.00006958 200.50344452 8.02943604 201.52300232 8.05969238 202.57345581 C8 205 8 205 7 207 C4.35559361 207.8814688 2.71939248 208.16174818 0 208.1875 C-0.680625 208.20167969 -1.36125 208.21585938 -2.0625 208.23046875 C-4 208 -4 208 -7 206 C-7.37231445 203.95068359 -7.37231445 203.95068359 -7.36328125 201.3984375 C-7.36392578 200.44388672 -7.36457031 199.48933594 -7.36523438 198.50585938 C-7.34783203 197.47267578 -7.33042969 196.43949219 -7.3125 195.375 C-7.29993164 193.79041992 -7.29993164 193.79041992 -7.28710938 192.17382812 C-7.11824868 180.73858197 -6.14588701 169.37353809 -5 158 C-10.84495185 162.65985334 -16.53012489 167.40862271 -22 172.5 C-26.64683932 176.82302562 -31.44550807 180.88549494 -36.39453125 184.86328125 C-39.67762907 187.55571679 -42.81168754 190.3925478 -45.9296875 193.2734375 C-49.13464429 195.94625052 -51.83673214 197.83035677 -56 198.4375 C-60.76053616 197.74325514 -62.97200618 195.3021255 -65.875 191.625 C-67.3513318 188.1802258 -67.18196979 186.54590936 -66 183 C-62.0727704 178.63226366 -57.51968615 175.13537423 -52.875 171.5625 C-52.08657715 170.95269287 -51.2981543 170.34288574 -50.48583984 169.71459961 C-44.91694811 165.42647592 -39.28612359 161.22771887 -33.625 157.0625 C-32.85486572 156.48830322 -32.08473145 155.91410645 -31.29125977 155.32250977 C-27.05462099 152.17727881 -22.76940957 149.16949579 -18.35546875 146.27734375 C-8.94730361 140.39080406 -8.94730361 140.39080406 -2.5703125 131.71484375 C-2.41581233 127.90232484 -3.04691354 124.65166578 -4 121 C-4.37940936 119.25383538 -4.75267212 117.5063284 -5.12109375 115.7578125 C-5.9142894 112.07906389 -6.78648293 108.43279466 -7.7109375 104.78515625 C-10.6342237 92.38185303 -11.32662577 80.190751 -11.26074219 67.51196289 C-11.2500253 65.06826902 -11.26070622 62.62531239 -11.2734375 60.18164062 C-11.28754193 45.99418886 -9.83416349 32.35221202 -6.625 18.5 C-6.4290625 17.58992188 -6.233125 16.67984375 -6.03125 15.7421875 C-4.71889944 9.97781224 -2.84655345 5.18436117 0 0 Z " fill="#3A1C0A" transform="translate(164,85)"/>
<path d="M0 0 C0.66 0 1.32 0 2 0 C1.43056721 3.36132958 0.49677811 4.82375895 -2.08984375 7.015625 C-3.01893555 7.80839844 -3.01893555 7.80839844 -3.96679688 8.6171875 C-4.94229492 9.42542969 -4.94229492 9.42542969 -5.9375 10.25 C-6.58396484 10.80429688 -7.23042969 11.35859375 -7.89648438 11.9296875 C-12.72371459 16 -12.72371459 16 -15 16 C-13.72186301 10.44532917 -11.5493916 8.41417505 -6.9375 5.1875 C-5.84232942 4.4103232 -4.74727157 3.63298753 -3.65234375 2.85546875 C-2.77707031 2.24316406 -1.90179688 1.63085938 -1 1 C-0.67 0.67 -0.34 0.34 0 0 Z " fill="#4A2509" transform="translate(285,120)"/>
<path d="M0 0 C-1.26026798 3.78080393 -2.93546534 4.77295425 -6.0625 7.1875 C-6.98160156 7.90292969 -7.90070313 8.61835937 -8.84765625 9.35546875 C-9.55792969 9.89816406 -10.26820313 10.44085938 -11 11 C-11 8 -11 8 -10 5 C-8.4765625 3.61328125 -8.4765625 3.61328125 -6.625 2.3125 C-6.01914062 1.87550781 -5.41328125 1.43851562 -4.7890625 0.98828125 C-3 0 -3 0 0 0 Z " fill="#4E2709" transform="translate(282,114)"/>
<path d="M0 0 C-1.5830577 4.2742558 -4.50568404 6.26531794 -8 9 C-8.66 8.01 -9.32 7.02 -10 6 C-8.71283353 4.99421411 -7.42011342 3.99553202 -6.125 3 C-5.40570313 2.443125 -4.68640625 1.88625 -3.9453125 1.3125 C-2 0 -2 0 0 0 Z " fill="#663507" transform="translate(298,135)"/>
<path d="M0 0 C-0.39803561 2.88575819 -0.79009069 3.82189513 -3.0625 5.75 C-3.701875 6.1625 -4.34125 6.575 -5 7 C-5.66 6.01 -6.32 5.02 -7 4 C-2.25 0 -2.25 0 0 0 Z " fill="#592D08" transform="translate(287,120)"/>
</svg>
